<mxfile host="app.diagrams.net" agent="Mozilla/5.0 (Windows NT 10.0; Win64; x64) AppleWebKit/537.36 (KHTML, like Gecko) Chrome/126.0.0.0 Safari/537.36" version="24.7.5">
  <diagram name="Pagina-1" id="GWz5S700PWX2qCfarbPv">
    <mxGraphModel dx="2082" dy="454" grid="1" gridSize="10" guides="1" tooltips="1" connect="1" arrows="1" fold="1" page="1" pageScale="1" pageWidth="1169" pageHeight="827" math="0" shadow="0">
      <root>
        <mxCell id="0" />
        <mxCell id="1" parent="0" />
        <mxCell id="yqYqqijZ5hUENa9ej6jt-1" value="ReceptionistApplication" style="swimlane;fontStyle=0;align=center;verticalAlign=top;childLayout=stackLayout;horizontal=1;startSize=26;horizontalStack=0;resizeParent=1;resizeLast=0;collapsible=1;marginBottom=0;rounded=0;shadow=0;strokeWidth=1;" vertex="1" parent="1">
          <mxGeometry x="-1070" y="160" width="180" height="100" as="geometry">
            <mxRectangle x="230" y="140" width="160" height="26" as="alternateBounds" />
          </mxGeometry>
        </mxCell>
        <mxCell id="yqYqqijZ5hUENa9ej6jt-5" value="" style="line;html=1;strokeWidth=1;align=left;verticalAlign=middle;spacingTop=-1;spacingLeft=3;spacingRight=3;rotatable=0;labelPosition=right;points=[];portConstraint=eastwest;" vertex="1" parent="yqYqqijZ5hUENa9ej6jt-1">
          <mxGeometry y="26" width="180" height="8" as="geometry" />
        </mxCell>
        <mxCell id="yqYqqijZ5hUENa9ej6jt-6" value="+ start(primarStage: Stage)" style="text;align=left;verticalAlign=top;spacingLeft=4;spacingRight=4;overflow=hidden;rotatable=0;points=[[0,0.5],[1,0.5]];portConstraint=eastwest;fontStyle=0" vertex="1" parent="yqYqqijZ5hUENa9ej6jt-1">
          <mxGeometry y="34" width="180" height="26" as="geometry" />
        </mxCell>
        <mxCell id="yqYqqijZ5hUENa9ej6jt-7" value="+ main(args: String[]): void" style="text;align=left;verticalAlign=top;spacingLeft=4;spacingRight=4;overflow=hidden;rotatable=0;points=[[0,0.5],[1,0.5]];portConstraint=eastwest;fontFamily=Helvetica;fontSize=12;fontColor=default;fontStyle=4;" vertex="1" parent="yqYqqijZ5hUENa9ej6jt-1">
          <mxGeometry y="60" width="180" height="28" as="geometry" />
        </mxCell>
        <mxCell id="yqYqqijZ5hUENa9ej6jt-10" value="Application" style="swimlane;fontStyle=0;align=center;verticalAlign=top;childLayout=stackLayout;horizontal=1;startSize=26;horizontalStack=0;resizeParent=1;resizeLast=0;collapsible=1;marginBottom=0;rounded=0;shadow=0;strokeWidth=1;" vertex="1" parent="1">
          <mxGeometry x="-840" y="20" width="180" height="80" as="geometry">
            <mxRectangle x="230" y="140" width="160" height="26" as="alternateBounds" />
          </mxGeometry>
        </mxCell>
        <mxCell id="yqYqqijZ5hUENa9ej6jt-14" value="" style="line;html=1;strokeWidth=1;align=left;verticalAlign=middle;spacingTop=-1;spacingLeft=3;spacingRight=3;rotatable=0;labelPosition=right;points=[];portConstraint=eastwest;" vertex="1" parent="yqYqqijZ5hUENa9ej6jt-10">
          <mxGeometry y="26" width="180" height="8" as="geometry" />
        </mxCell>
        <mxCell id="yqYqqijZ5hUENa9ej6jt-19" value="Extends" style="endArrow=block;endSize=16;endFill=0;html=1;rounded=0;" edge="1" parent="1" source="yqYqqijZ5hUENa9ej6jt-1" target="yqYqqijZ5hUENa9ej6jt-10">
          <mxGeometry x="-0.1859" y="-5" width="160" relative="1" as="geometry">
            <mxPoint x="-790" y="264" as="sourcePoint" />
            <mxPoint x="-940" y="100" as="targetPoint" />
            <mxPoint as="offset" />
          </mxGeometry>
        </mxCell>
        <mxCell id="yqYqqijZ5hUENa9ej6jt-20" value="Menu" style="swimlane;fontStyle=0;align=center;verticalAlign=top;childLayout=stackLayout;horizontal=1;startSize=26;horizontalStack=0;resizeParent=1;resizeLast=0;collapsible=1;marginBottom=0;rounded=0;shadow=0;strokeWidth=1;" vertex="1" parent="1">
          <mxGeometry x="-1090" y="370" width="370" height="110" as="geometry">
            <mxRectangle x="230" y="140" width="160" height="26" as="alternateBounds" />
          </mxGeometry>
        </mxCell>
        <mxCell id="yqYqqijZ5hUENa9ej6jt-21" value="- openStages: List&lt;Stage&gt;" style="text;align=left;verticalAlign=top;spacingLeft=4;spacingRight=4;overflow=hidden;rotatable=0;points=[[0,0.5],[1,0.5]];portConstraint=eastwest;fontStyle=0" vertex="1" parent="yqYqqijZ5hUENa9ej6jt-20">
          <mxGeometry y="26" width="370" height="26" as="geometry" />
        </mxCell>
        <mxCell id="yqYqqijZ5hUENa9ej6jt-22" value="" style="line;html=1;strokeWidth=1;align=left;verticalAlign=middle;spacingTop=-1;spacingLeft=3;spacingRight=3;rotatable=0;labelPosition=right;points=[];portConstraint=eastwest;" vertex="1" parent="yqYqqijZ5hUENa9ej6jt-20">
          <mxGeometry y="52" width="370" height="8" as="geometry" />
        </mxCell>
        <mxCell id="yqYqqijZ5hUENa9ej6jt-23" value="+ start( primaryStage: Stage, restTemplate: RestTemplate): void" style="text;align=left;verticalAlign=top;spacingLeft=4;spacingRight=4;overflow=hidden;rotatable=0;points=[[0,0.5],[1,0.5]];portConstraint=eastwest;fontStyle=0" vertex="1" parent="yqYqqijZ5hUENa9ej6jt-20">
          <mxGeometry y="60" width="370" height="26" as="geometry" />
        </mxCell>
        <mxCell id="yqYqqijZ5hUENa9ej6jt-28" value="" style="endArrow=none;html=1;rounded=0;startArrow=diamondThin;startFill=0;startSize=18;" edge="1" parent="1" source="yqYqqijZ5hUENa9ej6jt-1" target="yqYqqijZ5hUENa9ej6jt-20">
          <mxGeometry width="50" height="50" relative="1" as="geometry">
            <mxPoint x="-787" y="-72" as="sourcePoint" />
            <mxPoint x="-440" y="118" as="targetPoint" />
          </mxGeometry>
        </mxCell>
        <mxCell id="yqYqqijZ5hUENa9ej6jt-34" value="WCalendar" style="swimlane;fontStyle=0;align=center;verticalAlign=top;childLayout=stackLayout;horizontal=1;startSize=26;horizontalStack=0;resizeParent=1;resizeLast=0;collapsible=1;marginBottom=0;rounded=0;shadow=0;strokeWidth=1;" vertex="1" parent="1">
          <mxGeometry x="-1080" y="560" width="120" height="80" as="geometry">
            <mxRectangle x="230" y="140" width="160" height="26" as="alternateBounds" />
          </mxGeometry>
        </mxCell>
        <mxCell id="yqYqqijZ5hUENa9ej6jt-35" value="" style="line;html=1;strokeWidth=1;align=left;verticalAlign=middle;spacingTop=-1;spacingLeft=3;spacingRight=3;rotatable=0;labelPosition=right;points=[];portConstraint=eastwest;" vertex="1" parent="yqYqqijZ5hUENa9ej6jt-34">
          <mxGeometry y="26" width="120" height="8" as="geometry" />
        </mxCell>
        <mxCell id="yqYqqijZ5hUENa9ej6jt-36" value="+ ...." style="text;align=left;verticalAlign=top;spacingLeft=4;spacingRight=4;overflow=hidden;rotatable=0;points=[[0,0.5],[1,0.5]];portConstraint=eastwest;fontStyle=0" vertex="1" parent="yqYqqijZ5hUENa9ej6jt-34">
          <mxGeometry y="34" width="120" height="26" as="geometry" />
        </mxCell>
        <mxCell id="yqYqqijZ5hUENa9ej6jt-37" value="WRoom" style="swimlane;fontStyle=0;align=center;verticalAlign=top;childLayout=stackLayout;horizontal=1;startSize=26;horizontalStack=0;resizeParent=1;resizeLast=0;collapsible=1;marginBottom=0;rounded=0;shadow=0;strokeWidth=1;" vertex="1" parent="1">
          <mxGeometry x="-940" y="560" width="120" height="80" as="geometry">
            <mxRectangle x="230" y="140" width="160" height="26" as="alternateBounds" />
          </mxGeometry>
        </mxCell>
        <mxCell id="yqYqqijZ5hUENa9ej6jt-38" value="" style="line;html=1;strokeWidth=1;align=left;verticalAlign=middle;spacingTop=-1;spacingLeft=3;spacingRight=3;rotatable=0;labelPosition=right;points=[];portConstraint=eastwest;" vertex="1" parent="yqYqqijZ5hUENa9ej6jt-37">
          <mxGeometry y="26" width="120" height="8" as="geometry" />
        </mxCell>
        <mxCell id="yqYqqijZ5hUENa9ej6jt-39" value="+ ...." style="text;align=left;verticalAlign=top;spacingLeft=4;spacingRight=4;overflow=hidden;rotatable=0;points=[[0,0.5],[1,0.5]];portConstraint=eastwest;fontStyle=0" vertex="1" parent="yqYqqijZ5hUENa9ej6jt-37">
          <mxGeometry y="34" width="120" height="26" as="geometry" />
        </mxCell>
        <mxCell id="yqYqqijZ5hUENa9ej6jt-40" value="WEvent" style="swimlane;fontStyle=0;align=center;verticalAlign=top;childLayout=stackLayout;horizontal=1;startSize=26;horizontalStack=0;resizeParent=1;resizeLast=0;collapsible=1;marginBottom=0;rounded=0;shadow=0;strokeWidth=1;" vertex="1" parent="1">
          <mxGeometry x="-800" y="560" width="120" height="80" as="geometry">
            <mxRectangle x="230" y="140" width="160" height="26" as="alternateBounds" />
          </mxGeometry>
        </mxCell>
        <mxCell id="yqYqqijZ5hUENa9ej6jt-41" value="" style="line;html=1;strokeWidth=1;align=left;verticalAlign=middle;spacingTop=-1;spacingLeft=3;spacingRight=3;rotatable=0;labelPosition=right;points=[];portConstraint=eastwest;" vertex="1" parent="yqYqqijZ5hUENa9ej6jt-40">
          <mxGeometry y="26" width="120" height="8" as="geometry" />
        </mxCell>
        <mxCell id="yqYqqijZ5hUENa9ej6jt-42" value="+ ...." style="text;align=left;verticalAlign=top;spacingLeft=4;spacingRight=4;overflow=hidden;rotatable=0;points=[[0,0.5],[1,0.5]];portConstraint=eastwest;fontStyle=0" vertex="1" parent="yqYqqijZ5hUENa9ej6jt-40">
          <mxGeometry y="34" width="120" height="26" as="geometry" />
        </mxCell>
        <mxCell id="yqYqqijZ5hUENa9ej6jt-43" value="" style="endArrow=none;html=1;rounded=0;startArrow=diamondThin;startFill=0;startSize=18;" edge="1" parent="1" source="yqYqqijZ5hUENa9ej6jt-20" target="yqYqqijZ5hUENa9ej6jt-34">
          <mxGeometry width="50" height="50" relative="1" as="geometry">
            <mxPoint x="-1030" y="470" as="sourcePoint" />
            <mxPoint x="-918.48" y="591.8" as="targetPoint" />
          </mxGeometry>
        </mxCell>
        <mxCell id="yqYqqijZ5hUENa9ej6jt-45" value="" style="endArrow=none;html=1;rounded=0;startArrow=diamondThin;startFill=0;startSize=18;entryX=0.5;entryY=0;entryDx=0;entryDy=0;" edge="1" parent="1" source="yqYqqijZ5hUENa9ej6jt-20" target="yqYqqijZ5hUENa9ej6jt-40">
          <mxGeometry width="50" height="50" relative="1" as="geometry">
            <mxPoint x="-931" y="490" as="sourcePoint" />
            <mxPoint x="-984" y="570" as="targetPoint" />
          </mxGeometry>
        </mxCell>
        <mxCell id="yqYqqijZ5hUENa9ej6jt-46" value="" style="endArrow=none;html=1;rounded=0;startArrow=diamondThin;startFill=0;startSize=18;" edge="1" parent="1" source="yqYqqijZ5hUENa9ej6jt-20" target="yqYqqijZ5hUENa9ej6jt-37">
          <mxGeometry width="50" height="50" relative="1" as="geometry">
            <mxPoint x="-921" y="500" as="sourcePoint" />
            <mxPoint x="-974" y="580" as="targetPoint" />
          </mxGeometry>
        </mxCell>
        <mxCell id="yqYqqijZ5hUENa9ej6jt-47" value="ServerApplication" style="swimlane;fontStyle=0;align=center;verticalAlign=top;childLayout=stackLayout;horizontal=1;startSize=26;horizontalStack=0;resizeParent=1;resizeLast=0;collapsible=1;marginBottom=0;rounded=0;shadow=0;strokeWidth=1;" vertex="1" parent="1">
          <mxGeometry x="-630" y="160" width="180" height="100" as="geometry">
            <mxRectangle x="230" y="140" width="160" height="26" as="alternateBounds" />
          </mxGeometry>
        </mxCell>
        <mxCell id="yqYqqijZ5hUENa9ej6jt-48" value="" style="line;html=1;strokeWidth=1;align=left;verticalAlign=middle;spacingTop=-1;spacingLeft=3;spacingRight=3;rotatable=0;labelPosition=right;points=[];portConstraint=eastwest;" vertex="1" parent="yqYqqijZ5hUENa9ej6jt-47">
          <mxGeometry y="26" width="180" height="8" as="geometry" />
        </mxCell>
        <mxCell id="yqYqqijZ5hUENa9ej6jt-50" value="+ main(args: String[]): void" style="text;align=left;verticalAlign=top;spacingLeft=4;spacingRight=4;overflow=hidden;rotatable=0;points=[[0,0.5],[1,0.5]];portConstraint=eastwest;fontFamily=Helvetica;fontSize=12;fontColor=default;fontStyle=4;" vertex="1" parent="yqYqqijZ5hUENa9ej6jt-47">
          <mxGeometry y="34" width="180" height="28" as="geometry" />
        </mxCell>
        <mxCell id="yqYqqijZ5hUENa9ej6jt-51" value="Extends" style="endArrow=block;endSize=16;endFill=0;html=1;rounded=0;" edge="1" parent="1" source="yqYqqijZ5hUENa9ej6jt-47" target="yqYqqijZ5hUENa9ej6jt-10">
          <mxGeometry x="-0.1859" y="-5" width="160" relative="1" as="geometry">
            <mxPoint x="-880" y="171" as="sourcePoint" />
            <mxPoint x="-750" y="100" as="targetPoint" />
            <mxPoint as="offset" />
          </mxGeometry>
        </mxCell>
      </root>
    </mxGraphModel>
  </diagram>
</mxfile>
